<svg xmlns="http://www.w3.org/2000/svg" width="173" height="33"><g fill="none"><path d="M36.624 25.72l-2.657 6.892h-1.782l9.752-25.43h1.781l9.752 25.43h-1.782l-2.656-6.891H36.624zm6.22-16.208l-5.605 14.656h11.274l-5.67-14.656zM69.15 30.93C67.563 32.255 65.49 33 63.221 33c-4.924 0-8.973-3.591-8.973-9.026 0-5.436 4.05-8.93 8.973-8.93 2.203 0 4.277.777 5.864 2.038l-1.069 1.262a7.853 7.853 0 00-4.795-1.618c-3.984 0-7.321 2.848-7.321 7.28 0 4.465 3.337 7.376 7.321 7.376 1.815 0 3.467-.582 4.795-1.65l1.134 1.197zm10.626-14.01H75.76v15.724h-1.652V16.921h-3.143V15.4h3.143V8.476h1.652V15.4h4.017zm3.596-9.285c.81 0 1.426.583 1.426 1.36 0 .776-.616 1.358-1.426 1.358-.81 0-1.49-.582-1.49-1.359 0-.776.68-1.359 1.49-1.359zm-.81 7.765v17.244h1.653V15.4h-1.653zm19.18 0h1.814l-7.29 17.244h-1.943L87.066 15.4h1.814l6.382 15.368 6.48-15.368zm.907-8.185h19.114v4.303h-7.16v21.126h-4.762V11.518h-7.16V7.215zm23.131 25.397h-4.503V15.368h4.503v4.044c.875-3.138 2.916-4.433 4.892-4.433 1.231 0 2.138.26 2.851.615l-.778 4.044c-1.069-.485-2.17-.485-2.624-.485-3.077 0-4.309 2.718-4.309 7.312v6.147h-.032zm22.095-2.2c-1.102 1.78-3.661 2.556-5.346 2.556-4.535 0-8.812-3.462-8.812-8.962 0-5.532 4.244-8.962 8.812-8.962 1.555 0 4.115.582 5.346 2.524v-2.136h4.503v17.244h-4.503v-2.264zm-4.73-1.78c2.43 0 4.73-1.682 4.73-4.658 0-2.977-2.365-4.66-4.73-4.66-2.462 0-4.762 1.845-4.762 4.66 0 2.782 2.267 4.658 4.762 4.658zm17.527-3.397v7.377H156.2V7.182h4.47v13.362l4.763-5.176h5.831l-7.256 7.603 8.812 9.673h-5.67zM7.013 12.65l16.49-2.685-5.929 15.594z" fill="#333F48"/><path fill="#00BAB3" d="M7.013 12.65l-7.128 1.132 15.13 18.506 2.56-6.73z"/><path fill="#147BD1" d="M23.503 9.965L7.013 12.65 1.246 5.565 35.749 0 23.34 32.612l-5.767-7.053z"/></g></svg>